<svg xmlns="http://www.w3.org/2000/svg" id="Capa_1" height="512" viewBox="0 0 512 512" width="512"><g><path d="m295 480h-270c-13.807 0-25-11.193-25-25v-382c0-13.807 11.193-25 25-25h270c13.807 0 25 11.193 25 25v382c0 13.807-11.193 25-25 25z" fill="#fd6930"></path><path d="m283 448h-246c-2.761 0-5-2.239-5-5v-358c0-2.761 2.239-5 5-5h246c2.761 0 5 2.239 5 5v358c0 2.761-2.239 5-5 5z" fill="#fff"></path><g fill="#0055a3"><path d="m212.924 151.5h-84.923c-4.142 0-7.5-3.358-7.5-7.5s3.358-7.5 7.5-7.5h84.923c4.142 0 7.5 3.358 7.5 7.5s-3.358 7.5-7.5 7.5z"></path><path d="m210 183.5h-82c-4.142 0-7.5-3.358-7.5-7.5s3.358-7.5 7.5-7.5h82c4.142 0 7.5 3.358 7.5 7.5s-3.358 7.5-7.5 7.5z"></path><path d="m212.902 215.5h-84.902c-4.142 0-7.5-3.358-7.5-7.5s3.358-7.5 7.5-7.5h84.902c4.142 0 7.5 3.358 7.5 7.5s-3.358 7.5-7.5 7.5z"></path><path d="m221.999 247.5h-93.998c-4.142 0-7.5-3.358-7.5-7.5s3.358-7.5 7.5-7.5h93.998c4.142 0 7.5 3.358 7.5 7.5s-3.358 7.5-7.5 7.5z"></path><path d="m234.197 279.5h-106.196c-4.142 0-7.5-3.358-7.5-7.5s3.358-7.5 7.5-7.5h106.197c4.142 0 7.5 3.358 7.5 7.5s-3.359 7.5-7.501 7.5z"></path><path d="m212.745 311.5h-84.745c-4.142 0-7.5-3.358-7.5-7.5s3.358-7.5 7.5-7.5h84.745c4.142 0 7.5 3.358 7.5 7.5s-3.358 7.5-7.5 7.5z"></path></g><path d="m196.568 32c-2.489 0-4.525-1.876-4.86-4.342-2.119-15.619-15.508-27.658-31.708-27.658s-29.589 12.039-31.708 27.658c-.335 2.466-2.371 4.342-4.86 4.342h-33.432c-5.523 0-10 4.477-10 10v54c0 8.534 6.918 15.453 15.453 15.453h129.095c8.534 0 15.453-6.918 15.453-15.453v-54c0-5.523-4.477-10-10-10z" fill="#528fd8"></path><g><g><path d="m240 87.5h-128c-4.142 0-7.5-3.358-7.5-7.5s3.358-7.5 7.5-7.5h128c4.142 0 7.5 3.358 7.5 7.5s-3.358 7.5-7.5 7.5z" fill="#0573ce"></path></g></g><path d="m336.998.003c-96.183-.534-175.565 77.176-176.978 173.35-.459 31.245 7.225 60.657 21.067 86.251 5.423 10.027 3.636 22.418-4.424 30.479l-15.29 15.29 14.627 30.627 30.627 14.627 15.29-15.29c8.061-8.061 20.452-9.847 30.479-4.424 25.594 13.842 55.006 21.526 86.251 21.067 96.174-1.413 173.884-80.795 173.35-176.978-.535-96.411-78.589-174.464-174.999-174.999z" fill="#b2caec"></path><path d="m511.997 175.002c-.425-76.692-49.904-141.768-118.655-165.449 46.478 31.468 77.114 84.569 77.448 144.845.534 96.183-77.176 175.565-173.35 176.978-31.245.459-60.657-7.225-86.251-21.067-10.027-5.423-22.418-3.636-30.479 4.424l-10.061 10.061 5.351 11.206 30.627 14.627 15.29-15.29c8.061-8.061 20.452-9.847 30.479-4.424 25.594 13.842 55.006 21.526 86.251 21.067 96.175-1.413 173.884-80.794 173.35-176.978z" fill="#82aee3"></path><circle cx="336" cy="176" fill="#f2fbff" r="128"></circle><path d="m336 48c-5.074 0-10.08.296-15 .87 63.624 7.427 113 61.512 113 127.13s-49.376 119.703-113 127.13c4.92.574 9.926.87 15 .87 70.692 0 128-57.308 128-128s-57.307-128-128-128z" fill="#dff6fd"></path><path d="m417.894 131.502-15.73-15.73c-5.029-5.029-13.182-5.029-18.211 0l-70.09 70.09-36.149-36.149c-5.029-5.029-13.182-5.029-18.211 0l-15.73 15.73c-5.029 5.029-5.029 13.182 0 18.211l60.985 60.985c5.029 5.029 13.182 5.029 18.211 0l94.926-94.926c5.027-5.029 5.027-13.182-.001-18.211z" fill="#80d261"></path><path d="m196.467 381.108 10.16-30.48-45.255-45.255-30.48 10.16c-2.276.759-4.344 2.037-6.04 3.733l-117.309 117.308c-10.058 10.058-10.058 26.365 0 36.422l31.46 31.46c10.058 10.058 26.365 10.058 36.422 0l117.309-117.309c1.697-1.695 2.975-3.763 3.733-6.039z" fill="#01c0fa"></path><path d="m175.722 319.722-160.726 160.727 24.007 24.007c10.058 10.058 26.365 10.058 36.422 0l117.309-117.309c1.696-1.696 2.974-3.764 3.733-6.04l10.16-30.48z" fill="#08a9f1"></path><path d="m91 176h-22c-2.761 0-5-2.239-5-5v-22c0-2.761 2.239-5 5-5h22c2.761 0 5 2.239 5 5v22c0 2.761-2.238 5-5 5z" fill="#01c0fa"></path><path d="m91 240h-22c-2.761 0-5-2.239-5-5v-22c0-2.761 2.239-5 5-5h22c2.761 0 5 2.239 5 5v22c0 2.761-2.238 5-5 5z" fill="#01c0fa"></path><path d="m91 304h-22c-2.761 0-5-2.239-5-5v-22c0-2.761 2.239-5 5-5h22c2.761 0 5 2.239 5 5v22c0 2.761-2.238 5-5 5z" fill="#01c0fa"></path><path d="m219.554 307.054c-1.919 0-3.839-.732-5.304-2.197l-7.182-7.183c-2.929-2.929-2.928-7.678 0-10.607 2.929-2.928 7.678-2.928 10.607 0l7.182 7.183c2.929 2.929 2.928 7.678 0 10.607-1.464 1.465-3.384 2.197-5.303 2.197z" fill="#82aee3"></path><path d="m170.016 366.77c-1.919 0-3.839-.732-5.303-2.197l-17.286-17.286c-2.929-2.929-2.929-7.678 0-10.606 2.929-2.929 7.678-2.929 10.606 0l17.286 17.286c2.929 2.929 2.929 7.678 0 10.606-1.464 1.465-3.384 2.197-5.303 2.197z" fill="#0290cf"></path><g><g><g><circle cx="160" cy="32" fill="#0573ce" r="7.5"></circle></g></g></g></g></svg>