<svg xmlns="http://www.w3.org/2000/svg" id="Capa_1" height="512" viewBox="0 0 512 512" width="512"><g><g><path d="m93.324 360.726c-2.936-3.12-2.787-8.029.333-10.966l107.992-101.623c3.119-2.937 8.029-2.787 10.966.333 2.936 3.12 2.787 8.03-.333 10.966l-107.993 101.624c-3.113 2.93-8.022 2.793-10.965-.334z" fill="#5a557c"></path></g><g><path d="m305.654 219.833c-2.822-3.224-2.495-8.125.729-10.946l81.56-71.37c3.224-2.822 8.125-2.495 10.947.729s2.495 8.125-.729 10.946l-81.56 71.37c-3.218 2.816-8.121 2.502-10.947-.729z" fill="#5a557c"></path></g><g><path d="m200.444 232.727h-113.858c-4.284 0-7.758-3.473-7.758-7.758s3.473-7.758 7.758-7.758h113.858c4.284 0 7.758 3.473 7.758 7.758s-3.473 7.758-7.758 7.758z" fill="#5a557c"></path></g><g><path d="m214.054 190.116-73.263-73.263c-3.03-3.029-3.03-7.941 0-10.971 3.029-3.029 7.941-3.029 10.971 0l73.263 73.263c3.03 3.029 3.03 7.941 0 10.971-3.03 3.029-7.942 3.029-10.971 0z" fill="#5a557c"></path></g><path d="m221.091 85.851v-47.58c0-21.132-17.139-38.271-38.271-38.271h-75.852c-56.027 0-64.301 17.139-64.301 38.271v47.58c0 21.132 12.115 38.271 64.302 38.271h75.852c21.131-.001 38.27-17.14 38.27-38.271z" fill="#90dafd"></path><g><path d="m68.698 85.851v-47.58c0-21.132 17.139-38.271 38.27-38.271h-49.303c-21.132 0-38.271 17.139-38.271 38.271v47.58c0 21.132 17.139 38.271 38.271 38.271h49.304c-21.132-.001-38.271-17.14-38.271-38.271z" fill="#71c8fa"></path></g><path d="m128 380.121c0-20.462-13.264-37.957-31.785-44.145-38.55 0-48.635 23.599-48.635 44.145 0 20.544 11.119 44.143 48.63 44.143 18.469-6.173 31.79-23.599 31.79-44.143z" fill="#e080a1"></path><g><path d="m64.419 380.121c0-20.546 13.323-37.974 31.796-44.145-4.634-1.548-9.592-2.4-14.761-2.4-25.703 0-46.545 20.842-46.545 46.545s20.842 46.546 46.545 46.546c5.159 0 10.117-.852 14.755-2.402-18.469-6.174-31.79-23.6-31.79-44.144z" fill="#db507d"></path></g><path d="m104.727 224.97c0-13.072-8.084-24.246-19.523-28.817-26.072 0-31.332 15.746-31.332 28.817s8.447 28.818 31.332 28.818c11.439-4.572 19.523-15.747 19.523-28.818z" fill="#85ec93"></path><g><path d="m65.681 224.97c0-13.072 8.084-24.246 19.523-28.817-20.292-8.109-42.537 6.832-42.537 28.817 0 21.952 22.209 36.941 42.537 28.818-11.439-4.572-19.523-15.747-19.523-28.818z" fill="#7cda79"></path></g><path d="m492.606 108.606c0-27.599-18.016-50.974-42.925-59.041-45.253 0-61.543 31.442-61.543 59.041 0 27.578 17.325 59.042 61.539 59.042 24.912-8.065 42.929-31.442 42.929-59.042z" fill="#f6e588"></path><g><path d="m406.756 108.606c0-27.599 18.016-50.974 42.925-59.041-6.029-1.952-12.456-3.02-19.135-3.02-34.278 0-62.061 27.782-62.061 62.061 0 42.146 41.156 72.004 81.192 59.042-24.928-8.069-42.921-31.464-42.921-59.042z" fill="#f1d35e"></path></g><g><path d="m301.531 274.298c12.61-12.631 20.408-30.068 20.408-49.328 0-38.563-31.255-69.818-69.818-69.818s-69.818 31.255-69.818 69.818c0 18.072 6.866 34.55 18.141 46.955z" fill="#d9d9fb"></path><path d="m252.121 294.788c19.302 0 36.773-7.832 49.41-20.49v-19.187c0-27.873-22.676-50.548-50.548-50.548-13.324 0-25.898 5.14-35.405 14.475-16.022 15.729-15.024 34.8-15.133 35.299 0 0 0 6.835-.001 17.589 12.763 14.04 31.176 22.862 51.677 22.862z" fill="#bcc6fa"></path></g><path d="m438.303 404.966v-58.875c0-14.781-11.988-26.759-26.758-26.759-14.781 0-26.759 11.978-26.759 26.759 0-14.781-11.988-26.759-26.758-26.759-14.781 0-26.759 11.978-26.759 26.759 0-14.781-11.988-26.759-26.758-26.759-14.781 0-26.769 11.978-26.769 26.759 0-9.876 0-80.469 0-90.981 0-8.141-3.641-15.442-9.392-20.355-25.538-6.403-31.014 11.881-31.226 19.817 0 12.878-.013 137.484-.014 150.393 0 49.052 38.285 103.041 123.212 103.041 44.995-12.66 77.981-53.997 77.981-103.04z" fill="#f5dbcd"></path><g><path d="m255.741 404.966c.001-12.91.014-137.516.014-150.393.212-7.936 5.058-15.018 12.594-19.817-4.668-3.988-10.725-6.403-17.366-6.403-14.595 0-26.459 11.688-26.748 26.221 0 12.878-.009 137.484-.01 150.393 0 59.125 47.964 107.034 107.044 107.034 10.07 0 19.813-1.393 29.052-3.993-60.315-12.66-104.58-53.99-104.58-103.042z" fill="#f0c9bc"></path></g><path d="m50.424 46.546c0 4.284 3.473 7.757 7.758 7.757h10.516c12.628-2.327 14.955-15.515 0-15.515h-10.516c-4.285 0-7.758 3.473-7.758 7.758z" fill="#f1d35e"></path><path d="m58.182 69.818c-4.284 0-7.758 3.473-7.758 7.758 0 4.284 3.473 7.757 7.758 7.757h10.516c12.699-5.172 12.699-10.343 0-15.515z" fill="#f1d35e"></path><g fill="#f6e588"><path d="m120.242 54.303c4.284 0 7.758-3.473 7.758-7.757s-3.473-7.758-7.758-7.758h-51.544v15.515z"></path><path d="m182.303 69.818h-113.605v15.515h113.605c4.284 0 7.758-3.473 7.758-7.757 0-4.285-3.474-7.758-7.758-7.758z"></path></g></g></svg>