<svg xmlns="http://www.w3.org/2000/svg" id="Layer_1" viewBox="0 0 512 512"><g clip-rule="evenodd" fill-rule="evenodd"><g><g><path d="m411.707 70.616c11.138 0 20.222 9.084 20.222 20.221v372.08c0 11.137-9.084 20.221-20.222 20.221h-311.414c-11.138 0-20.221-9.084-20.221-20.221v-372.08c0-11.138 9.084-20.221 20.221-20.221z" fill="#eceff1"></path><path d="m411.707 70.616c11.138 0 20.222 9.084 20.222 20.221v372.08c0 11.137-9.084 20.221-20.222 20.221h-20.001c11.138 0 20.222-9.084 20.222-20.221v-372.08c0-11.138-9.084-20.221-20.222-20.221z" fill="#d1d1d6"></path></g><path d="m287.984 261.695c-4.418 0-8-3.582-8-8s3.582-8 8-8h107.943c4.418 0 8 3.582 8 8s-3.582 8-8 8zm0-117.831c-4.418 0-8-3.582-8-8s3.582-8 8-8h107.943c4.418 0 8 3.582 8 8s-3.582 8-8 8zm0 29.458c-4.418 0-8-3.582-8-8s3.582-8 8-8h107.943c4.418 0 8 3.582 8 8s-3.582 8-8 8zm0 29.458c-4.418 0-8-3.582-8-8s3.582-8 8-8h107.943c4.418 0 8 3.582 8 8s-3.582 8-8 8zm0 29.457c-4.418 0-8-3.582-8-8s3.582-8 8-8h107.943c4.418 0 8 3.582 8 8s-3.582 8-8 8z" fill="#a79ba7"></path><g><path d="m181.366 43.226h40.023c3.768-15.621 17.832-27.227 34.61-27.227s30.843 11.606 34.611 27.227h40.023c3.305 0 6 2.695 6 6v42.454c0 3.305-2.695 6-6 6h-149.267c-3.305 0-6-2.695-6-6v-42.454c.001-3.305 2.696-6 6-6z" fill="#ecba78"></path><path d="m326.633 43.226h4c3.305 0 6 2.695 6 6v42.454c0 3.305-2.695 6-6 6h-149.267c-3.305 0-6-2.695-6-6v-4h145.266c3.305 0 6-2.695 6-6v-38.454z" fill="#e3a76f"></path></g><path d="m256 54.605c5.187 0 9.418-4.231 9.418-9.418s-4.23-9.418-9.418-9.418c-5.187 0-9.418 4.23-9.418 9.418s4.23 9.418 9.418 9.418z" fill="#eceff1"></path></g><g><path d="m305.398 447.983 8.027 4.415c6.695 3.682 15.188 1.218 18.871-5.478s1.181-15.123-5.478-18.872c6.678 3.74 15.198 1.2 18.871-5.478 2.249-4.088 2.184-8.809.282-12.726l2.084-.867-94.077-74.883c-26.834-18.097-45.531 5.222-63.979-5.16l-24.439-11.275c-4.129-1.905-9.046-.112-10.981 4.003l-26.243 55.837c-.981 2.088-1.074 4.239-.274 6.403s2.269 3.739 4.372 4.686c8.719 3.928 22.08 9.94 24.819 11.003 8.362 3.246 5.606 16.314 10.183 22.279 7.044 9.182 8.193 15.876 14.189 19.319l87.417 50.212c6.626 3.805 15.188 1.218 18.871-5.478 3.682-6.694 1.204-15.165-5.459-18.9l9.55 5.31c6.678 3.713 15.188 1.218 18.871-5.479 3.684-6.696 1.182-15.123-5.477-18.871z" fill="#f6dccd"></path><path d="m256.781 336.324-2.803-2.231c-26.834-18.097-45.531 5.222-63.979-5.16l-24.439-11.275c-4.129-1.905-9.046-.112-10.981 4.003l-5.803 12.346c5.773-2.895 12.648-1.132 20.275 3.441 36.552 21.914 49.109-1.826 77.78 8.307 1.152-1.089 2.279-2.19 3.381-3.304 2.09-2.109 4.285-4.171 6.569-6.127z" fill="#f1cbbc"></path><path d="m257.673 484.868 11.369 6.533c6.465 3.715 14.775 1.339 18.595-5.001l-23.673-13.493zm64.347-59.508 4.798 2.688c6.374 3.57 14.442 1.427 18.357-4.62l-44.954-25.554c-3.178-1.789-7.205-.663-8.994 2.514-1.789 3.178-.663 7.205 2.514 8.994 9.546 5.464 28.528 16.118 28.279 15.978zm-21.3 20.051-30.826-17.507c-3.178-1.789-4.304-5.816-2.514-8.994 1.789-3.178 5.816-4.303 8.994-2.514l55.349 31.472c-3.933 5.97-11.93 8.032-18.299 4.53zm-42.751 7.099c-1.56-2.035-1.851-4.885-.514-7.26 1.789-3.178 5.816-4.303 8.994-2.514l43.961 24.903c-3.897 6.103-11.99 8.251-18.405 4.695l-8.634-4.787-21.566-12.308c-1.583-.904-2.845-1.267-3.836-2.729z" fill="#f1cbbc"></path><path d="m145.081 295.049-40.697 92.077c-1.968 4.452.065 9.705 4.517 11.673l17.725 7.834c4.452 1.968 9.705-.065 11.673-4.517l40.697-92.077c1.967-4.452-.065-9.705-4.517-11.673l-17.725-7.834c-4.452-1.967-9.705.065-11.673 4.517z" fill="#d1d1d6"></path><path d="m131.048 398.912c-1.962 4.439-7.19 6.473-11.634 4.534l7.213 3.188c4.452 1.968 9.705-.065 11.673-4.517 13.566-30.692 27.131-61.385 40.697-92.077 1.842-4.168.179-9.036-3.693-11.256-14.753 33.375-29.504 66.751-44.256 100.128z" fill="#b1b1b5"></path><path d="m158.505 305.156c3.322.154 5.89 2.972 5.736 6.294s-2.972 5.89-6.294 5.736-5.89-2.972-5.736-6.294 2.972-5.89 6.294-5.736z" fill="#685e68"></path><path d="m243.554 456.323c4.3-4.775 11.489-6.215 17.395-3.059 1.871 1 3.49 2.396 4.747 4.106 3.261 4.435 3.723 10.399 1.123 15.261l-8.46 15.819c-3.711 6.94-12.427 9.581-19.367 5.87-5.578-2.983-8.378-9.201-7.335-15.13-4.113 5.735-11.996 7.695-18.378 4.282-5.463-2.922-8.26-8.944-7.394-14.76-3.735 6.974-12.406 9.669-19.399 5.929-6.94-3.712-9.581-12.427-5.869-19.367l2.668-4.987c-4.36 3.947-10.922 4.952-16.375 2.035-6.94-3.711-9.581-12.427-5.869-19.367l8.823-16.497c3.713-6.941 12.424-9.574 19.366-5.869 6.669 3.559 9.365 11.77 6.27 18.556 4.36-3.995 10.958-5.02 16.439-2.094 5.901 3.15 8.691 9.941 7.111 16.166 4.299-4.775 11.488-6.211 17.394-3.059 5.9 3.149 8.69 9.94 7.11 16.165z" fill="#d6b4a8"></path><path d="m183.283 450.286c-4.36 3.947-10.922 4.952-16.375 2.035-1.203-.643-2.277-1.438-3.211-2.347 4.387.195 6.354-3.263 8.352-6.78l14.99-26.371c1.209-2.126 1.301-4.934.368-7.048.617.226 1.225.496 1.82.813 6.669 3.559 9.365 11.77 6.27 18.556zm22.6 18.425 13.167-25.504c1.575-6.222-1.216-13.009-7.114-16.157-.706-.377-1.431-.688-2.168-.936 1.109 2.615.532 5.114.337 5.492l-19.829 38.401c-.702 1.359-3.245 2.967-5.77 3.353.613.473 1.273.902 1.977 1.278 7.113 3.805 15.757.895 19.4-5.927zm53.458-16.182c.544.209 1.081.453 1.607.734 1.871 1 3.49 2.396 4.747 4.106 3.261 4.435 3.723 10.399 1.123 15.261l-8.46 15.819c-3.712 6.94-12.428 9.581-19.367 5.87-.078-.041-.154-.084-.231-.127 1.484-.54 2.422-1.358 2.846-2.179l17.658-34.197c.697-1.349.831-3.481.077-5.287zm-27.684 26.66c-4.113 5.735-11.996 7.695-18.378 4.282-.468-.251-.916-.524-1.344-.818 2.433-1.062 4.487-2.883 5.894-5.609l16.456-31.869c1.163-2.252.914-4.193-.057-5.97.753.25 1.493.567 2.215.952 5.901 3.149 8.691 9.941 7.111 16.166z" fill="#cca393"></path><path d="m292.154 376.306 48.058 27.391c2.587 1.474 4.548 3.648 5.761 6.148l27.118-11.315c4.148-1.731 6.164-6.462 4.54-10.652l-22.634-58.388c-.889-2.295-2.544-3.924-4.852-4.78-2.308-.855-4.625-.696-6.795.465l-16.222 8.682c-19.376 10.078-38.032-23.839-73.115.227-4.562 3.117-8.842 6.858-12.725 10.782-9.744 9.846-21.63 18.63-35.071 26.475-.428.25-.699.633-.793 1.12-.093.486.015.943.32 1.333 27.833 35.817 61.707-11.567 86.41 2.512z" fill="#d6b4a8"></path><path d="m329.427 397.551 10.784 6.146c2.587 1.474 4.548 3.648 5.761 6.148l27.118-11.315c4.145-1.729 6.161-6.456 4.543-10.644l-6.638-17.124c.306 5.444-.956 10.233-6.556 12.516zm-119.918-19.439c27.077 27.387 59.046-15.256 82.644-1.806-37.372-25.312-51.291 8.043-82.644 1.806z" fill="#cca393"></path><path d="m371.383 301.587 36.388 93.863c1.759 4.538-.515 9.691-5.053 11.451l-18.069 7.005c-4.539 1.76-9.691-.514-11.451-5.052l-36.388-93.864c-1.759-4.539.514-9.691 5.053-11.451l18.069-7.005c4.539-1.759 9.692.514 11.451 5.053z" fill="#d1d1d6"></path><path d="m340.392 304.273c-3.536 2.201-5.139 6.699-3.582 10.716l36.389 93.863c1.759 4.538 6.912 6.812 11.451 5.053l6.698-2.596.027-.01c-4.538 1.76-9.691-.514-11.451-5.053-13.178-33.991-26.354-67.982-39.532-101.973z" fill="#b1b1b5"></path><path d="m357.506 323.103c3.316 0 6.021-2.705 6.021-6.021s-2.705-6.021-6.021-6.021c-3.317 0-6.021 2.705-6.021 6.021s2.704 6.021 6.021 6.021z" fill="#685e68"></path></g><g><circle cx="178.752" cy="194.779" fill="#837683" r="73.015"></circle><path d="m238.786 194.779c0 14.936-4.485 28.824-12.181 40.392-2.97 4.464-6.419 8.583-10.272 12.283-11.658 11.193-27.024 18.553-44.072 20.055 2.138.189 4.303.285 6.491.285 3.548 0 7.036-.253 10.449-.742.441-.063.88-.13 1.317-.201 34.731-5.626 61.248-35.752 61.248-72.072 0-40.325-32.69-73.015-73.015-73.015-2.187 0-4.352.096-6.49.285 37.285 3.284 66.525 34.592 66.525 72.73z" fill="#685e68"></path><path d="m178.752 201.821c-26.302 0-47.956 19.929-50.698 45.503 13.133 12.674 31.005 20.47 50.698 20.47 3.548 0 7.036-.253 10.449-.742 15.529-2.226 29.479-9.339 40.245-19.73-2.738-25.579-24.388-45.501-50.694-45.501z" fill="#8ac9fe"></path><path d="m172.262 202.23c30.351 3.857 42.582 26.822 45.394 54.344 4.245-2.679 8.195-5.783 11.79-9.252-2.738-25.579-24.389-45.501-50.694-45.501-2.199 0-4.364.139-6.49.409z" fill="#60b7ff"></path><path d="m178.752 197.966c14.199 0 25.78-11.581 25.78-25.78s-11.581-25.779-25.78-25.779-25.78 11.581-25.78 25.779c0 14.2 11.581 25.78 25.78 25.78z" fill="#f6dccd"></path><path d="m198.042 172.187c0 13.139-9.829 23.982-22.535 25.577 1.063.133 2.146.202 3.245.202 14.238 0 25.78-11.542 25.78-25.78s-11.542-25.78-25.78-25.78c-1.099 0-2.182.069-3.245.202 12.706 1.597 22.535 12.44 22.535 25.579z" fill="#f1cbbc"></path></g></g></svg>