<svg xmlns="http://www.w3.org/2000/svg" id="Capa_1" height="512" viewBox="0 0 512 512" width="512"><g><g><g><g><g><g><g><path d="m472.014 454.452h-432.028v-280.766c0-15.608 12.652-28.26 28.26-28.26h375.507c15.608 0 28.26 12.652 28.26 28.26v280.766z" fill="#b2cbeb"></path><path d="m82.319 180.453c-4.035 0-7.306 3.271-7.306 7.306v231.667h338.797v-238.973z" fill="#f0f0f3"></path><path d="m436.988 419.426v-231.667c0-4.035-3.271-7.306-7.306-7.306h-25.144v238.973z" fill="#e0dde2"></path><g><path d="m481.953 435.449v-10.156l-6.009-5.867h-461.637c-7.902 0-14.307 6.405-14.307 14.306 0 23.358 18.935 42.293 42.293 42.293h409.294c17.548-5.15 30.366-21.361 30.366-40.576z" fill="#7aabdc"></path></g><path d="m497.693 419.426h-21.75v14.307c0 23.358-18.935 42.293-42.293 42.293h36.056c23.358 0 42.293-18.935 42.293-42.293.001-7.902-6.404-14.307-14.306-14.307z" fill="#5f98d5"></path><path d="m189.553 419.426c0 15.63 12.67 28.3 28.3 28.3h76.294c15.63 0 28.3-12.67 28.3-28.3z" fill="#b2cbeb"></path></g></g><g><g><g><g><g><g><g><g><g><g><g><g><g><g><path d="m168.722 389.943c13.23 0 34.282-35.308 30.196-36.095l-2.987-1.579c-3.883-2.053-6.313-6.085-6.313-10.478v-28.786h-41.792v28.786c0 4.392-2.429 8.425-6.313 10.478l-2.987 1.579c-4.086.787 16.966 36.095 30.196 36.095z" fill="#ffcbbe"></path><path d="m232.428 419.393c0-30.631-18.89-47.675-36.535-56.916-.368-.193-3.244-1.688-5.591-2.905-14.059 13.558-38.445 11.132-48.789-7.302s-66.501 9.652-66.501 67.124v.033h157.415v-.034z" fill="#fc8086"></path><path d="m195.931 352.269c-2.115 3.769-4.826 6.851-7.907 9.28 18.139 9.011 38.351 26.158 38.351 57.843v.033h36.056v-.033c.001-57.471-66.5-67.123-66.5-67.123z" fill="#fb636f"></path></g></g></g></g></g></g></g></g></g></g></g></g></g><g><path d="m177.032 329.187c8.406-7.388 13.03-18.235 13.222-29.483l-.09-73.229c-6.069-2.137-12.982-3.123-20.131-3.173-21.634.337-41.188 9.145-41.088 32.984l.033 7.992.014 3.344-2.666.001c-5.932.003-10.737 4.815-10.733 10.746l.007 9.738c.004 5.93 4.814 10.734 10.744 10.731l2.757-.001c.278 10.968 4.876 21.506 13.133 28.642 5.266 4.55 12.223 8.622 20.998 10.166 5.477-2.116 10.061-5.172 13.8-8.458z" fill="#ffcbbe"></path><path d="m221.817 274.782c-.017-4.174-3.374-7.544-7.498-7.526l-2.813.012-.047-11.335c-.074-17.674-10.949-27.026-25.463-30.719l.1 73.269c-.187 10.97-4.697 21.547-12.894 28.753-4.125 3.625-9.3 6.969-15.604 9.013 3.876 1.255 8.172 2.024 12.914 2.057 12.298-.191 21.587-5.27 28.187-11.071 8.197-7.205 12.707-17.783 12.894-28.753l2.824-.012c4.124-.018 7.453-3.416 7.436-7.59z" fill="#fdad9d"></path><path d="m190.199 255.71-.052-42.565h-67.374c-3.966 0-7.181 3.215-7.181 7.181v10.833c0 13.116 10.632 23.748 23.748 23.748 46.901.269 46.07-.612 50.859.803z" fill="#786e79"></path></g><g><path d="m211.973 229.195c-4.143 0-7.842-2.596-9.251-6.492l-1.109-3.066c-1.409-3.896-5.108-6.492-9.251-6.492h-6.383l.057 41.808c6.564.453 12.493 4.206 15.696 10.022 3.421 6.211 9.95 10.069 17.04 10.069 1.678 0 3.038-1.36 3.038-3.038v-32.972c.001-5.434-4.404-9.839-9.837-9.839z" fill="#695e66"></path></g></g></g><g><g><g fill="#98b9e3"><path d="m482.279 59.416c0-6.102-2.108-11.71-5.634-16.139-3.732-4.687-9.487-7.303-15.478-7.303h-110.777c-14.082 0-25.497 11.416-25.497 25.497v13.462l9.272 5.028h148.115v-20.545z"></path><path d="m482.279 302.746v-37.842h-148.115l-9.272 5.028v30.758c0 14.082 11.416 25.497 25.497 25.497h117.056c8.769-4.159 14.834-13.091 14.834-23.441z"></path></g><path d="m512 300.691v-30.758l-9.272-5.028h-26.414v35.786c0 14.082-11.416 25.497-25.497 25.497h35.686c14.081 0 25.497-11.416 25.497-25.497z" fill="#7aabdc"></path><path d="m476.314 61.472v18.49h26.414l9.272-5.028v-13.462c0-14.082-11.416-25.497-25.497-25.497h-35.686c14.081 0 25.497 11.415 25.497 25.497z" fill="#7aabdc"></path><path d="m324.893 74.934h157.386v194.998h-157.386z" fill="#e5ecf6"></path><path d="m476.314 74.934h35.686v194.998h-35.686z" fill="#d4e2f1"></path></g><g><circle cx="420.691" cy="167.672" fill="#ffb983" r="30.112"></circle><path d="m444.944 237.989c0-19.27-13.101-35.467-30.879-40.205h-7.375c-22.987 0-41.621 18.634-41.621 41.621v30.527h79.875z" fill="#fcdd2e"></path><path d="m434.693 197.784h-28.003c-1.359 0-2.701.07-4.027.198 21.097 2.026 37.594 19.796 37.594 41.424v30.527h36.056v-30.527c.001-22.987-18.633-41.622-41.62-41.622z" fill="#fbd307"></path></g></g></g></g></g><g><g><g><g><g><path d="m436.449 305.236h-31.515c-4.267 0-7.726-3.459-7.726-7.726s3.459-7.726 7.726-7.726h31.515c4.267 0 7.726 3.459 7.726 7.726s-3.459 7.726-7.726 7.726z" fill="#f0f0f3"></path></g></g></g></g></g></g></svg>