<svg xmlns="http://www.w3.org/2000/svg" id="Layer_1" height="512" viewBox="0 0 468 468" width="512"><g><g><g><g><path d="m405.599 179.974 5.81 1.231-6.719 1.906c-3.539 1.004-6.241 3.869-7.035 7.461l-1.246 5.633-1.246-5.633c-.794-3.592-3.496-6.457-7.035-7.461l-6.719-1.906 5.81-1.231c3.762-.797 6.733-3.681 7.643-7.417l1.547-6.352 1.547 6.352c.91 3.737 3.881 6.62 7.643 7.417z" fill="#ff8a80"></path></g></g><g><g><path d="m113.554 334.361 5.81 1.231-6.719 1.906c-3.539 1.004-6.241 3.869-7.035 7.461l-1.246 5.633-1.246-5.633c-.794-3.592-3.496-6.457-7.035-7.461l-6.719-1.906 5.81-1.231c3.762-.797 6.733-3.681 7.643-7.417l1.547-6.352 1.547 6.352c.91 3.737 3.881 6.62 7.643 7.417z" fill="#ad9cdb"></path></g></g><g><g><circle cx="383.412" cy="423.287" fill="#ff8a80" r="8.167"></circle></g></g></g><g><g><g><path d="m391.709 113.364h-176.896c-4.503-10.057-21.115-17.523-40.931-17.523-23.275 0-42.143 10.298-42.143 23 0 12.703 18.868 23 42.143 23 20.438 0 37.473-7.941 41.323-18.477h176.503c36.553 0 66.291 29.738 66.291 66.291s-29.738 66.291-66.291 66.291h-316.885c-41.258-.001-74.823 33.565-74.823 74.823s33.565 74.823 74.823 74.823h214.247c2.762 0 5-2.239 5-5s-2.238-5-5-5h-214.247c-35.743 0-64.823-29.079-64.823-64.823s29.08-64.824 64.823-64.824h316.886c42.067 0 76.291-34.224 76.291-76.291s-34.224-76.29-76.291-76.29z" fill="#334973"></path><g><circle cx="289.071" cy="400.592" fill="#7676ff" r="65"></circle></g><g><path d="m289.07 435.592c-19.299 0-35-15.701-35-35s15.701-35 35-35 35 15.701 35 35-15.701 35-35 35z" fill="#9595fc"></path></g><g><path d="m289.07 410.592c-5.514 0-10-4.486-10-10s4.486-10 10-10 10 4.486 10 10-4.486 10-10 10zm0-10c-.029 0-.051.006-.056.009.001 0 .028-.004.056-.009zm.007-.001c-.001 0-.001 0 0 0zm.001 0c-.001 0-.001 0 0 0zm.002 0c-.001 0-.001 0-.002 0zm.002-.001s0 0 0 0zm.001 0s0 0 0 0zm.003 0c-.001 0-.001 0 0 0zm.002-.001s0 0 0 0zm.006 0c-.001 0-.001 0-.002 0zm.001-.001c-.001 0-.001 0 0 0zm.004 0c-.001 0-.001 0-.002 0zm.003-.001c-.001 0-.001 0 0 0zm.002 0s-.001 0-.002 0zm.001 0s0 0 0 0zm.001-.001s0 0 0 0zm.002 0s0 0 0 0zm.008-.001c-.001 0-.001 0-.002 0zm.003-.001c-.001 0-.002 0-.002 0s.001 0 .002 0z" fill="#fff"></path></g><g><path d="m151.74 108.84c0-4.008 1.882-7.775 5.184-11.056-14.827 3.562-25.184 11.647-25.184 21.056 0 12.703 18.868 23 42.143 23 15.932 0 29.795-4.826 36.959-11.944-5.19 1.247-10.924 1.944-16.959 1.944-23.275 0-42.143-10.297-42.143-23z" fill="#1f3259"></path></g></g><g><g><path d="m172.872 11.063h70v49.17h-70z" fill="#f69"></path></g></g><g><g><path d="m191.407 11.063h-18.535v49.17h70v-18.536h-30.677c-11.481 0-20.788-9.307-20.788-20.788z" fill="#f92174"></path></g></g><g><path d="m173.882 123.841c-2.761 0-5-2.239-5-5v-111.433c0-2.761 2.239-5 5-5s5 2.239 5 5v111.433c0 2.761-2.238 5-5 5z" fill="#c7cfe1"></path></g></g><g><g><ellipse cx="347.824" cy="118.841" fill="#58ed9b" rx="27.5" ry="22.5"></ellipse></g><g><path d="m340.323 108.84c0-4.569 1.67-8.818 4.53-12.367-13.79 1.212-24.53 10.762-24.53 22.367 0 12.427 12.312 22.5 27.5 22.5 9.603 0 18.052-4.03 22.97-10.133-.976.086-1.966.133-2.97.133-15.187 0-27.5-10.073-27.5-22.5z" fill="#24d1af"></path></g></g><g><g><ellipse cx="141.941" cy="260.945" fill="#58ed9b" rx="27.5" ry="22.5"></ellipse></g><g><path d="m134.441 250.945c0-4.569 1.67-8.818 4.53-12.367-13.79 1.212-24.53 10.762-24.53 22.367 0 12.427 12.312 22.5 27.5 22.5 9.603 0 18.052-4.03 22.97-10.133-.976.086-1.966.133-2.97.133-15.188 0-27.5-10.073-27.5-22.5z" fill="#24d1af"></path></g></g><g><g><g><path d="m32.268 95.148 14.914-27.242 14.914 27.242 27.268 14.899-27.268 14.899-14.914 27.243-14.914-27.243-27.268-14.899z" fill="#fedf5b"></path></g><g><path d="m58.014 87.693-10.832-19.787-14.914 27.242-27.268 14.899 19.811 10.825 21.457-11.724z" fill="#fabe2c"></path></g></g><g><g><path d="m402.592 328.089 14.914-27.242 14.913 27.242 27.269 14.899-27.269 14.9-14.913 27.242-14.914-27.242-27.268-14.9z" fill="#fedf5b"></path></g><g><path d="m428.338 320.634-10.832-19.787-14.914 27.242-27.268 14.899 19.811 10.825 21.457-11.724z" fill="#fabe2c"></path></g></g></g></g></g></svg>