<svg xmlns="http://www.w3.org/2000/svg" id="color" viewBox="0 0 32 32"><g><path d="m31 32h-10c-.552 0-1-.448-1-1v-9c0-1.654 1.346-3 3-3h6c1.654 0 3 1.346 3 3v9c0 .552-.448 1-1 1z" fill="#ebebeb"></path></g><g><path d="m11 32h-10c-.552 0-1-.448-1-1v-4c0-1.654 1.346-3 3-3h6c1.654 0 3 1.346 3 3v4c0 .552-.448 1-1 1z" fill="#ebebeb"></path></g><g><path d="m12.952 12c-.2 0-.4-.06-.571-.179-.314-.219-.477-.598-.417-.976l.487-3.114-2.161-2.179c-.264-.266-.357-.658-.241-1.014s.422-.618.792-.677l2.925-.468 1.299-2.812c.164-.352.515-.578.902-.581.38.008.741.219.909.568l1.337 2.792 2.931.424c.371.054.681.311.803.666.121.355.034.748-.227 1.018l-2.131 2.211.53 3.107c.064.377-.092.758-.403.981-.312.222-.723.247-1.059.066l-2.617-1.418-2.598 1.458c-.153.085-.322.127-.49.127z" fill="#f2c500"></path></g><g><path d="m21 32h-10c-.552 0-1-.448-1-1v-14c0-1.654 1.346-3 3-3h6c1.654 0 3 1.346 3 3v14c0 .552-.448 1-1 1z" fill="#05a9e3"></path></g><g><path d="m31 32h-30c-.552 0-1-.448-1-1s.448-1 1-1h30c.552 0 1 .448 1 1s-.448 1-1 1z" fill="#323232"></path></g></svg>