<svg xmlns="http://www.w3.org/2000/svg" clip-rule="evenodd" fill-rule="evenodd" height="1.707in" viewBox="0 0 1707 1707" width="1.707in"><g id="Layer_x0020_1"><path d="m473 946c-261 0-473-212-473-473s212-473 473-473 473 212 473 473-212 473-473 473z" fill="#333"></path><path d="m325 1707h-198c-16 0-28-13-28-29v-197h-70c-11 0-22-6-27-17-4-10-2-22 5-31l197-225c11-12 33-12 44 0l195 223c6 5 10 13 10 21 0 16-13 29-29 29h-1-69v197c0 16-13 29-29 29z" fill="#ff3131"></path><path d="m892 1707h-241c-16 0-29-13-29-29v-426h-92c-12 0-22-7-27-17-4-11-3-23 5-32l242-276c5-6 13-10 22-10 8 0 16 4 21 10l240 274c6 5 10 13 10 22 0 16-13 29-29 29h-1-92v426c0 16-13 29-29 29z" fill="#ffa721"></path><path d="m1537 1707h-282c-16 0-29-13-29-29v-704h-112c-11 0-22-7-26-17-5-10-3-23 4-31l282-322c5-6 13-10 22-10 8 0 16 4 22 10l279 319c6 6 10 13 10 22 0 16-13 29-29 29h-112v704c0 16-13 29-29 29z" fill="#1aa1ff"></path><path d="m1678 505h-616c-16 0-29-13-29-29v-284c0-16 13-29 29-29h616c16 0 29 13 29 29v284c0 16-13 29-29 29z" fill="#333"></path><path d="m1567 363h-394c-16 0-29-13-29-29s13-29 29-29h394c16 0 29 13 29 29s-13 29-29 29z" fill="#fbfbfb"></path><path d="m164 632c-17-62-35-88-35-159 0-190 154-344 344-344s344 154 344 344c0 71-18 97-35 159z" fill="#9ff"></path><path d="m129 473c0-95 39-181 101-243l-91-91c-86 85-139 204-139 334z" fill="#7dd63e"></path><path d="m230 230c62-62 148-101 243-101v-129c-130 0-249 53-334 139z" fill="#ffa721"></path><path d="m716 230 91-91c-85-86-204-139-334-139v129c95 0 181 39 243 101z" fill="#ff700d"></path><path d="m946 473c0-130-53-249-139-334l-91 91c62 62 101 148 101 243z" fill="#ff3131"></path><path d="m478 502c-7 2-14 1-20-3-13-7-17-23-10-35l184-266-139 292c-3 6-9 10-15 12z" fill="#ff3131"></path><path d="m473 542c-38 0-68-31-68-69s30-68 68-68 68 30 68 68-30 69-68 69z" fill="#333"></path><path d="m473 503c-17 0-30-13-30-30 0-16 13-30 30-30s30 14 30 30c0 17-13 30-30 30z" fill="#e6e6e6"></path></g></svg>