<svg xmlns="http://www.w3.org/2000/svg" viewBox="0 0 492 492"><g id="Layer_1" clip-rule="evenodd" fill-rule="evenodd"><g><g><path d="m254.761 407.105c-15.443.001-30.463-3.018-45.513-9.109-17.663-7.15-32.262-17.228-45.142-26.12-16.036-11.07-28.702-19.814-38.667-16.966-3.765 1.077-7.692-1.103-8.768-4.869-1.075-3.763-.429-62.669-.267-66.579.162-3.913 3.465-6.953 7.38-6.792 2.851.118 13.38-.081 29.205-7.615 24.114-11.479 50.868 9.155 54.051 11.724 7.202 5.01 24.169 20.968 39.16 35.069 6.977 6.561 13.566 12.759 17.607 16.358 5.484 4.884 10.346 11.536 12.409 18.349 19.136-.472 43.412-.336 58.189 3.63 12.867 3.452 21.709 12.525 21.503 22.064-.07 3.214-1.197 7.915-6.174 12.059-3.481 2.899-8.388 5.068-14.585 6.446-15.801 3.515-44.758 8.467-62.525 11.039-6.033.874-11.98 1.312-17.863 1.312z" fill="#ffb986"></path><path d="m272.119 341.895c1.775 2.768 3.201 5.699 4.098 8.66 2.225-.055 4.52-.101 6.861-.135-3.266 6.076-6.63 12.236-6.885 12.916-2.047 5.47-7.746 12.027-23.27 12.203-.144.001-.289.002-.433.002-13.369.001-28.88-7.017-46.116-20.864-12.476-10.023-21.247-19.976-21.614-20.394-2.583-2.945-2.289-7.426.656-10.008s7.425-2.289 10.008.656c.081.092 8.446 9.567 19.999 18.822 14.383 11.523 27.192 17.605 37.067 17.605.091 0 .18-.001.271-.002 6.692-.076 9.648-1.659 10.147-2.992.931-2.483 5.679-9.819 9.211-16.469z" fill="#ffa779"></path></g><path d="m115.109 369.939h-37.726c-8.531 0-15.472-6.941-15.472-15.471v-78.454c0-8.531 6.94-15.471 15.472-15.471h37.726c8.531 0 15.472 6.94 15.472 15.471v78.454c0 8.53-6.94 15.471-15.472 15.471z" fill="#2e2e47"></path><g fill="#505079"><path d="m105.357 351.411c-3.917 0-7.092-3.175-7.092-7.092v-18.806c0-3.917 3.175-7.092 7.092-7.092s7.092 3.175 7.092 7.092v18.806c0 3.916-3.176 7.092-7.092 7.092z"></path><path d="m87.135 351.411c-3.917 0-7.092-3.175-7.092-7.092v-18.806c0-3.917 3.175-7.092 7.092-7.092s7.092 3.175 7.092 7.092v18.806c0 3.916-3.175 7.092-7.092 7.092z"></path></g></g><g><path d="m292.397 317.755c-7.834 0-15.377-2.446-21.241-6.889-5.975-4.526-9.713-10.718-10.524-17.436-.111-.922.178-1.848.794-2.543s1.501-1.093 2.43-1.093h57.082c.929 0 1.814.398 2.43 1.093s.905 1.621.794 2.543c-.811 6.717-4.549 12.909-10.524 17.436-5.864 4.443-13.407 6.889-21.241 6.889z" fill="#ccf"></path><path d="m325.23 296.289h-65.664c-5.151 0-9.342-3.996-9.342-8.908v-15.454c0-.882.359-1.725.993-2.337.635-.612 1.49-.94 2.372-.908.031.001.063.002.095.002h77.427c.032 0 .063 0 .095-.001.883-.034 1.738.296 2.372.908.635.612.993 1.456.993 2.337v15.454c0 4.911-4.19 8.907-9.341 8.907z" fill="#66f"></path><path d="m328.772 254.065h-72.749c-1.616 0-2.987-1.189-3.215-2.789-2.34-16.417-9.603-23.984-17.293-31.997-5.148-5.364-10.471-10.91-14.527-19.176-4.536-9.244-6.741-20.64-6.741-34.837 0-10.549 2.067-20.784 6.143-30.421 3.936-9.307 9.571-17.664 16.747-24.84s15.534-12.811 24.84-16.747c9.637-4.076 19.872-6.143 30.42-6.143 10.549 0 20.784 2.067 30.421 6.143 9.306 3.937 17.664 9.571 24.84 16.747s12.811 15.534 16.747 24.84c4.076 9.637 6.143 19.872 6.143 30.421 0 14.197-2.205 25.593-6.741 34.837-4.056 8.266-9.379 13.813-14.527 19.176-7.69 8.012-14.953 15.58-17.293 31.997-.228 1.6-1.598 2.789-3.215 2.789z" fill="#ffc205"></path><path d="m332.138 275.177h-79.481c-4.585 0-8.314-3.73-8.314-8.315v-10.978c0-4.585 3.729-8.314 8.314-8.314h79.481c4.584 0 8.314 3.73 8.314 8.314v10.978c0 4.585-3.73 8.315-8.314 8.315z" fill="#ccf"></path></g><g fill="#f0a205"><path d="m194.537 132.28c-.82 0-1.653-.176-2.444-.548l-34.565-16.232c-2.879-1.352-4.117-4.783-2.765-7.662s4.783-4.117 7.662-2.765l34.564 16.233c2.88 1.352 4.117 4.783 2.765 7.662-.981 2.088-3.054 3.312-5.217 3.312z"></path><path d="m159.981 203.059c-2.164 0-4.237-1.225-5.217-3.313-1.352-2.879-.114-6.31 2.765-7.662l34.564-16.232c2.88-1.353 6.31-.114 7.662 2.765s.114 6.31-2.765 7.662l-34.564 16.232c-.792.371-1.625.548-2.445.548z"></path><path d="m194.541 159.557c-.001 0-.001 0-.002 0l-34.564-.01c-3.181-.001-5.759-2.58-5.758-5.761.001-3.18 2.579-5.759 5.76-5.759h.002l34.564.01c3.181.001 5.759 2.58 5.758 5.761-.002 3.181-2.58 5.759-5.76 5.759z"></path><path d="m390.259 132.28c-2.163 0-4.236-1.225-5.217-3.313-1.352-2.88-.114-6.31 2.765-7.662l34.563-16.232c2.879-1.352 6.31-.115 7.662 2.765 1.352 2.879.114 6.31-2.765 7.662l-34.563 16.232c-.791.372-1.624.548-2.445.548z"></path><path d="m424.815 203.059c-.82 0-1.653-.176-2.445-.548l-34.563-16.232c-2.879-1.352-4.117-4.783-2.765-7.662 1.353-2.88 4.783-4.117 7.662-2.765l34.562 16.232c2.88 1.352 4.117 4.783 2.765 7.662-.979 2.087-3.052 3.313-5.216 3.313z"></path><path d="m390.258 159.557c-3.181.001-5.76-2.578-5.761-5.759s2.577-5.76 5.758-5.761l34.563-.01c3.181-.001 5.761 2.577 5.761 5.759.001 3.181-2.577 5.761-5.758 5.761z"></path></g><path d="m301.698 191.342h-18.6c-3.023 0-5.532-2.338-5.746-5.354l-4.8-67.8c-.113-1.594.442-3.164 1.531-4.333 1.09-1.17 2.616-1.834 4.215-1.834h28.2c1.599 0 3.125.664 4.214 1.834 1.089 1.169 1.644 2.739 1.531 4.333l-4.8 67.8c-.213 3.016-2.722 5.354-5.745 5.354z" fill="#f66"></path><path d="m301.698 229.142h-18.6c-3.181 0-5.76-2.579-5.76-5.76v-18.6c0-3.181 2.579-5.76 5.76-5.76h18.6c3.181 0 5.76 2.579 5.76 5.76v18.6c0 3.181-2.579 5.76-5.76 5.76z" fill="#f66"></path></g><g id="Master_Layer_2"></g></svg>