<svg xmlns="http://www.w3.org/2000/svg" id="Layer_2" data-name="Layer 2" viewBox="0 0 208.94 231.5"><defs><style>      .cls-1 {        fill: #65b74a;      }      .cls-2 {        fill: #0069b4;      }    </style></defs><g id="Layer_1-2" data-name="Layer 1"><g><g><path class="cls-2" d="M129.14,119.1h16.9c1.7,0,2.4.6,2.3,2.3-.1,2.7,0,5.3,0,8,0,1.4-.5,2-1.9,2h-23.6c-1.8,0-2.4.4-2.4,2.1v8c0,1.5.4,1.9,1.9,1.9,6.5-.1,13.1,0,19.6-.1,1.9,0,2.4.6,2.3,2.4-.2,2.1,0,4.2,0,6.3q0,3-3.1,3h-17.9c-2.6,0-2.7,0-2.7,2.7v9.3h6.8c6.4,0,12.8.2,19.2-.2,1.4,0,2.1.4,2,1.9v7.6c0,1.4-.4,2-1.9,2h-37.5c-1.6,0-2-.6-2-2.1v-52.5c0-3.7,1-4.7,4.8-4.7h17.5l-.3.1Z"></path><path class="cls-2" d="M56.04,120h40.3v10.5c0,1.4-1.2,1.1-2.1,1.1h-22.6c-2.07,0-3.1,1.07-3.1,3.2v6.5c0,1.6.5,2.1,2.1,2.1h19.4c2,0,2.8.6,2.6,2.6-.2,2.3-.1,4.6,0,7,0,1.7-.5,2.2-2.2,2.2h-19c-1.9,0-2.6.6-2.5,2.5.1,2.4.1,4.8,0,7.2,0,1.7.5,2.3,2.3,2.3h22.6q3.1,0,3.1,3.1v6.3c.1,1.8-.6,2.3-2.3,2.3h-37.2c-1.6.1-2.1-.6-2.1-2.1v-39.4c0-5.2.1-10.4.2-15.6,0-.5-.1-1,.5-1.4v-.4Z"></path><path class="cls-2" d="M162.44,119.6h29.3c3.4,0,6.7.8,10.1.3,1.2-.2,1.9.6,1.9,1.9,0,2.5,0,4.9.2,7.4,0,1.6-.6,2.1-2.1,2.1h-13.3c-1.9,0-2.4.6-2.4,2.4v41.9c0,1.93-.97,2.9-2.9,2.9-2.8,0-5.6-.1-8.4,0-2,.1-2.5-.6-2.5-2.5v-41.7c0-2-.97-3-2.9-3h-12.4c-1.7,0-2.4-.4-2.4-2.2.1-2.5,0-4.9,0-7.4,0-1.5.5-2.2,2.1-2.1h5.7,0Z"></path><path class="cls-2" d="M43.94,134v24.9c0,4.2-.6,8.3-2.8,11.9-2.9,4.7-7.4,7.2-12.7,8.2-6.3,1.2-12.3.6-17.8-3-2.2-1.4-3.8-3.3-5.1-5.5-.4-.7-.7-1.4.2-2,3-1.7,6.1-3.4,9.2-5.1,1.2,1.3,2.1,2.5,3.5,3.3,5.9,3.3,11.9,0,11.9-6.8v-36.7c0-2.4,1.2-3.6,3.6-3.6h7.6c1.8,0,2.5.6,2.5,2.4v12h-.1Z"></path></g><g><path class="cls-1" d="M99.04,221.3c-.3-.5-.6-.8-.8-1.2-1.5-2.3-4.3-3.2-6.8-2.3-1.1.4-1,1.2-1,2.1v8.9c0,1.4-.4,2.1-1.9,2-1.5,0-3.1-.1-4.6,0-1.8.1-2-.9-2-2.4v-32.7c0-5.2-.3-4.4,4.3-4.4h11.8c2.4,0,4.6.4,6.8,1,5.4,1.6,8.7,5.5,9.1,11.1.4,5.3-1.4,10.2-6.8,12.6-.3.1-.6.4-1.1.7,3.1,4.5,6.2,9,9.8,14.1-2.5,0-4.5-.2-6.5,0-3,.4-4.9-.7-6.2-3.3-1.1-2.1-2.6-4-4-6.1M104.34,207.3c1.4-4-.2-7.1-4.3-8.2-2.7-.7-5.5-.3-8.2-.3-1.1,0-1.4.6-1.4,1.6v8.4c0,1.2.4,1.8,1.7,1.8,2,0,4.1.1,6.1,0,2.3-.2,4.6-.9,6.1-3.3h0Z"></path><path class="cls-1" d="M165.94,218.9v9.9c0,1.4-.4,2.1-1.9,2h-4.8c-1.5,0-2-.5-2-2v-35.2c0-1.7.5-2.3,2.3-2.3q6.5,0,6.5,6.3v7c0,1.4.4,2.1,1.9,2h12.9c1.4,0,1.9-.5,1.9-1.9v-11.2c0-1.6.5-2.3,2.2-2.2,1.5.1,3.1.1,4.6,0,1.8-.1,2.3.7,2.3,2.3v34.8c0,1.7-.5,2.5-2.3,2.3-1.6-.1-3.2-.1-4.8,0-1.5,0-2-.5-2-2v-11.2c0-2-.7-2.6-2.6-2.5-3.5.1-7,0-10.5,0-2.33,0-3.5,1.27-3.5,3.8l-.2.1Z"></path><path class="cls-1" d="M63.14,197.9c4.3,11,8.6,21.8,13,33-3.3.3-6.2.2-9.1,0-.9,0-1-.8-1.3-1.5-.7-1.8-1.3-3.7-2-5.5-.4-1.2-1.2-1.8-2.5-1.7h-11.6c-1.5,0-2.3.7-2.7,2.1-.6,1.9-1.3,3.7-2,5.6-.2.7-.6,1.3-1.4,1.3h-8.2c0-1.9.7-3.2,1.2-4.5,4.2-10.9,8.6-21.8,12.8-32.8.7-1.8,1.5-2.9,3.6-2.5h.8c2.2.2,4.9-.9,6.6.4,1.7,1.3,1.9,4,2.8,6.2M51.14,212.7c-.2.8-.8,1.5-.4,2.3h9.8c-1.7-4.7-3.3-9-5.1-13.9-1.5,4.1-2.8,7.7-4.3,11.6Z"></path><path class="cls-1" d="M21.14,190.8c3.2.7,6.1,1.6,8.7,3.7-1.2,1.9-2.3,3.7-3.4,5.5-.6,1-1.2.6-2,.2-2.6-1.4-5.4-2.3-8.4-2.3h-1.3c-2.6.3-4.6,1.9-4.8,3.7-.2,1.6,1.3,3.2,4,4,3,.9,6.1,1.6,9.1,2.4,6.6,1.9,8.4,5.7,8.5,10.6,0,4.9-1.8,9.3-8,11.4-7.5,2.6-14.8,1.8-21.6-2.3-2.5-1.5-2.5-1.8-.5-3.9,1.1-1.1,1.7-2.8,3.2-3.3,1.6-.5,2.7,1.2,4.1,1.7,3,1.2,6,1.8,9.3,1.4,2.5-.3,4.4-2,4.6-4,.2-1.8-1-3.3-3.6-4.1-3.2-1-6.5-1.7-9.7-2.7-9.1-2.9-9.9-11.4-6.5-16.7,2.5-3.9,6.6-5.3,11-5.8,2.3-.2,4.8-.4,7.3.3v.2Z"></path><path class="cls-1" d="M138.94,229.7c0,1.3-.7,1.5-1.5,1.5h-5.1c-1.7.1-2.2-.6-2.1-2.2v-26.3c0-2.33-1.2-3.5-3.6-3.5h-7c-1.1,0-1.7-.4-1.7-1.6v-.4c-.13-3.93,1.73-5.9,5.6-5.9h25.1c1.9,0,2.5.5,2.5,2.5q0,5.4-5.4,5.4h-4.8c-1.6,0-2,.6-2,2.1v28.4h0Z"></path><path class="cls-1" d="M208.94,201.5v26.7c0,1.9-.6,2.5-2.5,2.5q-6.3,0-6.3-6.3v-30.5c0-2.2.6-2.7,2.7-2.7,6,0,6.1,0,6.1,6.1v4.2h0Z"></path></g><g><path class="cls-2" d="M78.64,74.9c10.8,3,18.6,9.8,25.6,18.3,2.8-3.9,6.1-7.1,9.7-10,7.7-6.3,16.6-9.5,26.4-10.4,15.4-1.4,29,4,42.2,11.1,4.3,2.3,8.2,5,11.9,8.1.5.4,1.1.6,1,1.7-3.2-1.2-6.4-2.2-9.5-3.4-8-3-16.2-5.6-24.7-6.7-10.4-1.3-20.5-.7-30.5,2.6-8.9,2.9-16.7,7.4-23.4,14-3.4,3.3-2.9,3.2-6.1,0-9.9-9.9-22.2-15.1-35.9-16.8-12.8-1.6-25.2.6-37.3,4.9-4.6,1.6-9.1,3.2-14.1,4.3,2.6-1.9,5-4.1,7.7-5.8,9.8-6.3,20.2-11.1,31.8-13,8.4-1.4,16.7-1.4,25.1,1.2l.1-.1Z"></path><path class="cls-2" d="M85.64,95.7c6.2,2.5,11.6,5.9,16.7,9.9-1.4,1.7-2.6.8-3.6.5-7.2-2.2-14.3-4.5-21.7-5.8-12.8-2.2-25.7-2.3-38.6-2.1-9.5.2-19,1.1-28.4,1.9-.4,0-.7,0-.9-.6,2.6-1.6,5.5-2.3,8.4-3.1,15.6-4.6,31.5-6.1,47.6-5.3,7,.4,13.8,1.8,20.6,4.4l-.1.2Z"></path><path class="cls-2" d="M109.44,103.4c9-7,19.2-10.4,30.1-11.6,19.9-2.1,39.3.2,58.2,7,.6.2,1.1.5,1.7.7.1,0,.2.3.5.8-3.7-.2-7.1-.3-10.5-.6-9.6-.9-19.1-1.5-28.7-1.5-10.4,0-20.8.4-31,2.2-6.5,1.1-12.7,3.2-18.9,5.3-1.2.4-2.4,1-3.8.7-.1-1.8,1.5-2,2.4-3h0Z"></path></g><g><path class="cls-1" d="M77.54,48.7c-.1,0-.2,0-.5-.3s-.6-.4-.8-.4v-.1c-.4-.2-.8-.3-1.1-.4-13.7-6.8-27.3-16.5-29-21.3,1.8.5,3.5.6,4.8,1.4,5.1,3.1,10.1,6.3,14.9,9.8,3.2,2.3,6.1,5,9.1,7.7,0,.2.2.2.3.2v.2c.2.3.4.4.6.5v.1c.4.4.8.7,1.2,1,.2.2.5.3.7.7-.1.4-.2.6-.3.8l.1.1Z"></path><path class="cls-1" d="M72.34,12.3c-.3-1.5-.7-2.8-1-4.1.2-.2.4-.3.7-.5,1,.8,2.2,1.4,2.9,2.4,2.2,3,4.3,6,6.1,9.2,4,6.9,7.4,14.1,10,21.8-3.5-2.9-15.6-21.5-18.8-28.8h.1Z"></path><path class="cls-1" d="M139.64,40.8c7-7,19.4-14.5,23.8-14-.9,1.2-1.5,2.4-2.4,3.2-4.4,3.4-8.9,6.7-13.5,9.8-3.1,2.1-6.4,3.9-9.8,5.7-.8.3-1.3.7-1.9,1.1h-.1c-.2,0-.3.2-.4.3h-.1c-.3.2-.5.3-.7.4h-.1c-.7-.3-1.4,1.4-2-.1h.1c.3-.3.5-.6.7-.8,0-.1,0-.2.4-.3.3-.2.4-.3.4-.4h.1c.2-.2.3-.4.4-.6h.2c.3-.2.5-.5.7-.8h.2c.3-.2.5-.5.7-.7h.1c.3-.3.5-.5.7-.8,0-.1,0-.2.4-.3.8-.6,1.4-1.1,2-1.7h.1Z"></path><path class="cls-1" d="M133.74,19.1c-3.1,4.8-6.1,9.6-9.2,14.4-.9,1.4-1.9,2.7-3.1,4-.4.3-.6.7-.8,1h-1.2c0-.1,0-.3.3-.4.3-.7.5-1.3.6-1.9,3.4-8.4,7.4-16.6,12.9-24.2.7-.7,1.2-1.4,1.6-2h.1c.2-.2.3-.4.4-.6h.2c.2,0,.2-.2.2-.3h.2c.2-.1.3-.2.4-.4h1.6s0,.1-.1.3c-1.5,3.2-2.8,6.2-4.1,9.2v.9Z"></path><path class="cls-1" d="M162.54,53.3c.2,0,.4-.1.8,0,2.6,0,4.9-.1,7.2,0,.5,0,1,.6,1.4.9h-.2c-.2,0-.3.2-.4.3h-.1c-2.8,1.1-5.5,2.1-8.2,3.2,0,.1-.1.2-.4.2-2.6.3-5,.7-7.4,1.3-1.4.3-2.7.8-4.1,1.2h-.4c-2.4.2-4.7.4-6.9.8-1,.2-2,.6-3,.9-.7,0-1.4.1-2.1.2l-.4-.4c.4-.4.7-1.1,1.2-1.2,6.4-2.1,12.9-4.1,19.3-6.1.2,0,.5-.2,1-.2,1.1-.2,1.9-.4,2.8-.7l-.1-.4Z"></path><path class="cls-1" d="M71.04,61l.9.8c0,.1,0,.3-.1.4-2.1-.3-4.2-.5-6.5-1-2.3-.6-4.3-1.1-6.4-1.4-1.6-.3-3.2-.3-4.9-.5,0,0-.1,0-.3-.2-1.4-.5-2.6-.9-3.8-1.2-3-.7-6-1.4-8.9-2.1v-.1c-1.2-.7-2.4-1.3-3.6-1.8v-.2c2.4-.3,4.9-.9,7.1-.4,6.6,1.6,13.1,3.7,19.7,5.5,1.2.4,2.5.6,3.8.9v.1c1,.4,2,.8,3,1.1v.1Z"></path><path class="cls-1" d="M102.84,20.3v-.8c.4-6.7.7-13.1,1-19.5h.1c.6.5,1.1,1,1.7,1.5v.2c0,.4-.1.7,0,.9,1.4,7.9.9,15.9,0,23.8-.1,1.1.2,2.2.3,3.2,0,.2,0,.4-.2.7-.4,1.1-.7,2.1-.9,3-.7-3.8-.9-7.6-1.3-11.3,0-.7-.5-1.3-.7-2v.3Z"></path><path class="cls-1" d="M67.94,59.7c-1.2-.2-2.5-.4-3.7-.8-6.6-1.9-13-3.9-19.7-5.5-2.2-.5-4.7.1-7.1.4-.3-.1-.6-.5-1.1-1,4.9-.4,9.4-.2,13.8,1.2,5.9,1.8,11.8,3.7,17.7,5.7h.1Z"></path><path class="cls-1" d="M105.94,29.6c-.1-.9-.4-2-.3-3.1.9-8,1.4-15.9,0-23.8v-1c1.6,4.3,1.5,9,1.3,13.6-.2,4.7-.7,9.4-1,14.3Z"></path><path class="cls-1" d="M102.84,20.4c.3.5.7,1.1.7,1.8.3,3.7.6,7.5,1.3,11.3.2-1,.5-1.9.9-2.9-.1,2.4-.4,4.9-.7,7.3h-.5c-.6-5.8-1.1-11.6-1.7-17.6v.1Z"></path><path class="cls-1" d="M103.84.1c-.2,6.3-.5,12.7-.9,19.2-.1-5-.2-10.1-.1-15.2,0-1.3.6-2.7,1-4.1v.1Z"></path><path class="cls-1" d="M41.14,56c2.9.6,5.9,1.3,8.8,2,1.2.3,2.5.7,3.7,1.2-4.1-.9-8.3-2-12.6-3.2h.1Z"></path><path class="cls-1" d="M54.24,59.4c1.5.1,3.1.2,4.7.4,2.1.3,4.1.8,6.2,1.4-3.6-.5-7.1-1.1-10.9-1.8h0Z"></path><path class="cls-1" d="M151.34,60.1c1.2-.4,2.5-.9,3.9-1.1,2.4-.5,4.8-.9,7.3-1.3-3.6.9-7.3,1.6-11.2,2.4h0Z"></path><path class="cls-1" d="M172.14,54.1c-.6-.3-1.1-.9-1.5-.9-2.3,0-4.6.1-7,.1,2.5-.3,5.2-.6,7.9-.8.6,0,2.1.1.7,1.5l-.1.1Z"></path><path class="cls-1" d="M133.84,19.1c-.1-.2-.2-.5,0-.7,1.3-3,2.6-6.1,4.1-9.1-1.2,3.2-2.5,6.5-4,9.8h-.1Z"></path><path class="cls-1" d="M141.04,61.8c.8-.3,1.8-.7,2.9-.9,2.2-.4,4.4-.6,6.8-.8-3.1.6-6.3,1.2-9.6,1.7h-.1Z"></path><path class="cls-1" d="M132.34,47.2c.6,1.4,1.4-.2,2.1,0-1.5,1-3.2,1.9-4.8,2.9l-.3-.3c.9-.9,1.9-1.7,3-2.7v.1Z"></path><path class="cls-1" d="M163.24,57.5c2.5-1,5.2-2.1,8.1-3.2-2.5,1.1-5.2,2.1-8.1,3.2Z"></path><path class="cls-1" d="M119.44,38.6c.4-.1.7,0,1.2,0-.5.9-1.1,1.8-1.7,2.7-.1,0-.2,0-.3-.1.3-.8.5-1.5.8-2.5v-.1Z"></path><path class="cls-1" d="M37.44,54.1c1.1.4,2.3,1,3.5,1.7-1.1-.4-2.3-1-3.5-1.7Z"></path><path class="cls-1" d="M71.04,60.9c-.9-.2-1.9-.5-3-1,.9.2,1.9.5,3,1Z"></path><path class="cls-1" d="M139.54,40.8c-.5.5-1,1-1.7,1.6.4-.5,1-1,1.7-1.6Z"></path><path class="cls-1" d="M77.64,48.8c0-.3.1-.5.3-.8.6.4,1.2,1,1.8,1.5,0,.1-.2.2-.3.3-.5-.3-1.1-.6-1.8-1Z"></path><path class="cls-1" d="M162.44,53.4c-.7.2-1.6.5-2.5.7.7-.3,1.5-.5,2.5-.7Z"></path><path class="cls-1" d="M134.74,10c-.3.6-.8,1.2-1.4,1.9.3-.6.8-1.2,1.4-1.9Z"></path><path class="cls-1" d="M135.94,46.5c.4-.3,1-.7,1.6-1-.4.4-1,.7-1.6,1Z"></path><path class="cls-1" d="M138.04,8.6c-.5.1-.9,0-1.5,0,.4,0,1-.1,1.5,0Z"></path><path class="cls-1" d="M120.34,36.3c0,.5-.2,1.1-.4,1.7,0-.5.2-1.1.4-1.7Z"></path><path class="cls-1" d="M77.14,47c-.4-.2-.8-.5-1.2-.9.4.2.8.5,1.2.9Z"></path><path class="cls-1" d="M75.24,47.6c.2,0,.6.1,1,.4-.3,0-.6-.2-1-.4Z"></path><path class="cls-1" d="M120.84,38.5c0-.3.3-.6.5-.9,0,.3-.3.6-.5.9Z"></path><path class="cls-1" d="M136.34,43.5c0,.2-.3.5-.6.7,0-.3.3-.5.6-.7Z"></path><path class="cls-1" d="M137.14,42.8c0,.2-.3.5-.6.7,0-.2.3-.5.6-.7Z"></path><path class="cls-1" d="M135.34,44.3c0,.2-.2.5-.5.7,0-.3.3-.5.5-.7Z"></path><path class="cls-1" d="M133.14,46.3c0,.2-.3.5-.6.8,0-.2.3-.5.6-.8Z"></path><path class="cls-1" d="M134.64,47.2c0-.1.2-.3.6-.4,0,.1-.2.3-.6.4Z"></path><path class="cls-1" d="M75.94,45.9c-.2,0-.4-.1-.6-.4.2,0,.4.1.6.4Z"></path><path class="cls-1" d="M134.54,45.1c0,.1,0,.3-.3.5,0-.1.1-.3.3-.5Z"></path><path class="cls-1" d="M135.34,9.4c0,.1,0,.3-.3.5,0-.1.1-.3.3-.5Z"></path><path class="cls-1" d="M76.34,48.1c.2,0,.4,0,.7.2-.2,0-.4,0-.7-.2Z"></path><path class="cls-1" d="M171.44,54.4s0-.2.3-.3q0,.2-.3.3Z"></path><path class="cls-1" d="M135.44,46.8s.1-.2.3-.3c0,0-.1.2-.3.3Z"></path><path class="cls-1" d="M133.94,45.6s0,.2-.3.4c0,0,0-.2.3-.4Z"></path><path class="cls-1" d="M135.74,9s0,.2-.1.3c0-.1,0-.2.1-.3Z"></path><path class="cls-1" d="M136.24,8.6c0,.1,0,.2-.2.3q0-.2.2-.3Z"></path></g></g></g></svg>